<svg xmlns="http://www.w3.org/2000/svg" viewBox="0 0 532.84 532.52"><defs><style>.cls-1{fill:#231f20;}.cls-2{fill:#f37021;}</style></defs><title>Asset 1</title><g id="Layer_2" data-name="Layer 2"><g id="Layer_1-2" data-name="Layer 1"><path class="cls-1" d="M34.33,249c0-2.73,1.19-4.26,4.24-4.26s4.25,1.53,4.25,4.26v61.93H31.59l-22.23-51v-.1H9.2v46.82c0,2.7-1.18,4.25-4.24,4.25S.7,309.29.7,306.59V244.64H11.93l22.22,51.65h.09Z"/><path class="cls-1" d="M76.64,290.32c-2.21,0-5.44.58-5.44,3.58v5.43c0,2.73,3.31,3.34,5.27,3.34h9l9-4.66v-1.79c0-4.54-1.27-5.9-5.79-5.9Zm.08-17.18c-2.37,0-5.63-.52-5.63-4.09S74,265,76.72,265H88c4.25,0,7.31.42,10.56,3.67s3.55,5.59,3.64,9.68l.85,27.75c.08,2.37-1.09,4.77-3.84,4.77a4.17,4.17,0,0,1-4.16-4.1l-5.61,2.9c-2.3,1.2-2.39,1.2-5,1.2H76.56c-3.66,0-6.3-.43-9.29-2.91-3.4-2.8-4.24-5.77-4.24-10v-3.57c0-3.93.92-6.39,4-9.11,2.82-2.46,6-3.07,9.54-3.07H94.08v-1.87c0-6.12-1.35-7.14-7.23-7.14Z"/><path class="cls-1" d="M154,273.14H132.24c-2.39,0-5.61-.52-5.61-4.09s2.89-4.08,5.61-4.08h26.57c4.16,0,5.52,1.35,5.52,4.25V272c0,1.62-.51,2.81-2.4,4.59l-27.39,26.13h24.17c2.72,0,5.62.58,5.62,4.07s-3.27,4.1-5.62,4.1H130.36c-5.7,0-6-2.4-6-4.77v-2.14c0-1.94.08-2.54,1.53-3.91Z"/><path class="cls-1" d="M197.54,248.44c0-2.88,1.62-3.8,3.83-3.8h4.68c2.21,0,3.82.92,3.82,3.8v3.92c0,2.91-1.61,3.85-3.82,3.85h-4.68c-2.21,0-3.83-.94-3.83-3.85Zm12.33,54.23H216c2.71,0,5.61.58,5.61,4.07s-3.24,4.1-5.61,4.1H195.26c-2.4,0-5.63-.53-5.63-4.1s2.89-4.07,5.63-4.07h6.45V273.14h-6.45c-2.4,0-5.63-.52-5.63-4.09s2.89-4.09,5.63-4.09h8.57c4.7,0,6,.87,6,5.7Z"/><path class="cls-1" d="M271,278.66v26.55c0,2.81-.56,5.63-4.08,5.63s-4.09-2.82-4.09-5.63v-27.3c0-1.37.17-3.92-1.94-3.92-.94,0-1.54.78-2.23,1.36l-3.55,3.31v26.55c0,2.81-.62,5.63-4.09,5.63s-4.11-2.82-4.11-5.63V270.75c0-2.9.77-5.78,4.28-5.78a4,4,0,0,1,3.92,3.23l.66-.5c2.14-1.61,3.41-2.73,6.23-2.73a9,9,0,0,1,7.48,4.08l.67-.68c2.56-2.54,3.58-3.4,7.16-3.4a8.38,8.38,0,0,1,6.79,3.32c2.06,2.64,1.87,5,1.95,8.18l.86,28.25c.09,2.88-.33,6.12-4,6.12-3.33,0-4-2.82-4.08-5.54l-.85-27c-.1-1.44.32-4.33-1.9-4.33-1.16,0-2.72,2-3.39,2.8Z"/><path class="cls-1" d="M308.24,284c0-5,.93-7.48,4.83-10.73l6.06-5c3.83-3.15,5.78-3.24,10.54-3.24h12.95c2.7,0,5.6.58,5.6,4.08s-3.23,4.09-5.6,4.09h-14.4a7.62,7.62,0,0,0-4.66,2l-4.94,4.17c-1.27,1-2.23,1.87-2.23,3.5V293c0,1.62,1,2.48,2.23,3.5l4.94,4.18a7.62,7.62,0,0,0,4.66,2h14.4c2.37,0,5.6.5,5.6,4.07s-2.9,4.1-5.6,4.1H329.67c-4.76,0-6.71-.08-10.54-3.24l-6.06-5c-3.9-3.25-4.83-5.69-4.83-10.71Z"/><path class="cls-1" d="M377.67,295.59c0,1.72.62,2.83,3,4.85a7.44,7.44,0,0,0,5.63,2.23h6.46a7.36,7.36,0,0,0,5.61-2.23c2.39-2,3-3.13,3-4.85V280.2c0-1.7-.62-2.79-3-4.85a7.42,7.42,0,0,0-5.61-2.21H386.3a7.5,7.5,0,0,0-5.63,2.21c-2.38,2.06-3,3.15-3,4.85Zm-8.15-15.39c0-5.43,1.12-7.33,5.2-10.65S380.59,265,386.3,265h6.46c5.7,0,7.58,1.26,11.57,4.58s5.2,5.22,5.2,10.65v15.39c0,5.37-1.37,7.41-5.62,11s-6,4.25-11.15,4.25H386.3c-5.18,0-6.9-.69-11.14-4.25s-5.64-5.63-5.64-11Z"/><path class="cls-1" d="M430.83,271c0-3,.33-6,4.08-6,3.23,0,4.09,2.73,4.09,5.45v3.32l6.37-5.3c2.3-1.88,4.68-3.47,7.25-3.47h6.54a10.74,10.74,0,0,1,8,3.24,12,12,0,0,1,3.66,9.26c0,2.81-.51,5.72-4,5.72-3,0-4.17-2.4-4.17-5a5.33,5.33,0,0,0-.85-3.58c-1.05-1.44-3-1.44-4.95-1.44h-2.38c-1.56,0-2.64.75-4.1,1.94L439,284.55V305.2c0,2.82-.59,5.65-4.09,5.65s-4.08-2.83-4.08-5.65Z"/><path class="cls-1" d="M523.94,283.26a4.12,4.12,0,0,0-1.71-3.58l-6.11-5.09a4.33,4.33,0,0,0-2.8-1.45h-2.13c-1.19,0-2.64,1.52-3.5,2.38l-5.09,4.84c-1.69,1.63-2.3,2.55-2.3,4.35v8a5.13,5.13,0,0,0,1.18,3.5l6.21,5.84c1.2,1.19,2.48,2.3,3.5,2.3h2.13a4.33,4.33,0,0,0,2.8-1.45l6.11-5.09a4.11,4.11,0,0,0,1.71-3.58Zm8.18,9.87c0,5.88-.42,8.08-5.2,11.83L522,308.88c-1.7,1.35-4.34,3.66-6.54,3.66h-5.52c-3.67,0-5.38-2.39-8-4.86l-1.61-1.52v16.42c0,2.81-.6,5.59-4.08,5.59s-4.1-2.78-4.1-5.59V271c0-2.87.35-6,4.1-6,3.31,0,4.08,2.62,4.08,5.36v1l1.61-1.43C504,268,507.27,265,509.59,265h5.6c1.95,0,4.58,2,6.8,3.75l4.93,3.83c4.78,3.73,5.2,6,5.2,11.83Z"/><path class="cls-1" d="M10.92,368.58H29.83c2.37,0,6.11-.18,6.11-3.57v-5.87c0-3.39-3.5-3.83-6-3.83h-19Zm0,40.16c0,2.73-1.19,4.26-4.25,4.26s-4.26-1.53-4.26-4.26v-62H31c6.73,0,13.44,4.79,13.44,12.36V365c0,8-6.63,12.07-13.44,12.07H23.17l19.15,27.41c.94,1.28,2.12,2.91,2.12,4.5a4.08,4.08,0,0,1-4.33,4c-1.71,0-2.83-1-3.76-2.39L12.87,377.08H10.92Z"/><path class="cls-1" d="M81.4,387.82h23.67v-4.94c0-1.56.08-2.83-1-3.83l-3.15-2.74c-1-.93-2.65-1-3.91-1H90.1a6.56,6.56,0,0,0-4.19.95l-2.8,2c-1,.78-1.71,1.37-1.71,3.76ZM88.22,413c-3.4,0-4.78,0-7.31-2.23l-3.51-3.06c-3.21-2.89-4.14-4.75-4.14-9.17V382.8c0-4.36.58-6.91,4-9.79l2.9-2.48c3.83-3.32,5.69-3.4,9-3.4h7.49c4,0,5.86.44,9,3l3.33,2.63c3.73,3,4.24,6.14,4.24,10.63v6.54c0,4.7-.76,6.06-5.61,6.06H81.4v2.73a4.07,4.07,0,0,0,1.2,2.37l2,2.23c1.11,1.18,2.73,1.52,5.46,1.52h17.52c2.74,0,5.61.59,5.61,4.08S110,413,107.62,413Z"/><path class="cls-1" d="M157,375.31c-1.69,0-4.59-.34-4.59,2.28,0,1.39,1,1.9,2.23,2.41l20.41,9.26c5.28,2.39,8,5.69,8,11.57,0,8.24-5.61,12.18-13.43,12.18H157c-4.25,0-7.14-.17-10.21-2.55-1.51-1.2-3.74-2.75-3.74-4.78a4.18,4.18,0,0,1,4.27-4.08,3.91,3.91,0,0,1,3.14,1.46c1.45,1.59,4,1.77,6.54,1.77h11.09c2.89,0,6.81.24,6.81-4.51,0-2-2.41-3.23-4.28-4.08l-19.22-8.76c-4.5-2-7.16-4.68-7.16-10,0-6.48,5.12-10.38,11.23-10.38h14c4.53,0,6.39.25,9.46,2.82,1.53,1.28,3.23,2.28,3.23,4.58a4.18,4.18,0,0,1-4.18,4.11,4.34,4.34,0,0,1-3.47-1.72c-1.36-1.44-2.82-1.61-5-1.61Z"/><path class="cls-1" d="M221.05,397.76c0,1.71.6,2.82,3,4.87a7.42,7.42,0,0,0,5.61,2.21h6.47a7.44,7.44,0,0,0,5.61-2.21c2.36-2.05,3-3.16,3-4.87V382.37c0-1.7-.62-2.82-3-4.86a7.43,7.43,0,0,0-5.61-2.2h-6.47a7.41,7.41,0,0,0-5.61,2.2c-2.38,2-3,3.16-3,4.86Zm-8.18-15.39c0-5.45,1.13-7.33,5.2-10.64s5.88-4.6,11.57-4.6h6.47c5.69,0,7.57,1.27,11.57,4.6s5.19,5.19,5.19,10.64v15.39c0,5.36-1.37,7.41-5.61,11s-6,4.26-11.15,4.26h-6.47c-5.21,0-6.9-.7-11.15-4.26s-5.62-5.62-5.62-11Z"/><path class="cls-1" d="M322.69,407c0,1.87.33,6.05-4,6.05-3.49,0-4.07-2.9-4.07-5.72V406L308,410.29c-2.64,1.68-4.83,2.72-7.07,2.72h-6a11.51,11.51,0,0,1-7.59-3c-3.64-3.13-3.57-6.63-3.74-11l-.85-25.71c-.11-3,.34-6.14,4.08-6.14,3.49,0,3.93,3,4,5.62l.84,25.1c.07,1.87.16,4.11.83,5.28s2.84,1.7,4.77,1.7H300a4.62,4.62,0,0,0,2.55-.76l12-7.56V372.75c0-2.8.59-5.62,4.09-5.62s4.09,2.82,4.09,5.62Z"/><path class="cls-1" d="M352.5,373.18c0-3,.33-6.05,4.11-6.05,3.2,0,4.07,2.74,4.07,5.45v3.31l6.37-5.27c2.3-1.85,4.7-3.49,7.23-3.49h6.56a10.79,10.79,0,0,1,8,3.24,12,12,0,0,1,3.65,9.27c0,2.8-.51,5.7-4,5.7-3,0-4.15-2.39-4.15-5a5.23,5.23,0,0,0-.88-3.58c-1-1.44-3-1.44-4.92-1.44h-2.38c-1.54,0-2.66.77-4.1,1.95l-11.39,9.46V407.4c0,2.77-.61,5.61-4.07,5.61s-4.11-2.84-4.11-5.61Z"/><path class="cls-1" d="M422.32,386.12c0-5,.94-7.48,4.85-10.73l6.05-5c3.82-3.16,5.78-3.24,10.54-3.24H456.7c2.72,0,5.62.58,5.62,4.1s-3.24,4.08-5.62,4.08H442.33a7.8,7.8,0,0,0-4.69,2l-4.94,4.16c-1.27,1.05-2.21,1.88-2.21,3.51v10.13c0,1.62.94,2.48,2.21,3.47l4.94,4.19a7.7,7.7,0,0,0,4.69,2H456.7c2.38,0,5.62.5,5.62,4.08s-2.9,4.09-5.62,4.09H443.76c-4.76,0-6.72-.09-10.54-3.24l-6.05-5c-3.91-3.22-4.85-5.69-4.85-10.72Z"/><path class="cls-1" d="M500.3,387.82H524v-4.94c0-1.56.09-2.83-1-3.83l-3.16-2.74c-1-.93-2.64-1-3.92-1H509a6.52,6.52,0,0,0-4.17.95l-2.83,2c-1,.78-1.68,1.37-1.68,3.76ZM507.11,413c-3.41,0-4.76,0-7.31-2.23l-3.49-3.06c-3.24-2.89-4.16-4.75-4.16-9.17V382.8c0-4.36.58-6.91,4-9.79l2.89-2.48c3.84-3.32,5.71-3.4,9-3.4h7.49c4,0,5.86.44,9,3l3.31,2.63c3.76,3,4.25,6.14,4.25,10.63v6.54c0,4.7-.75,6.06-5.62,6.06H500.3v2.73a4.05,4.05,0,0,0,1.19,2.37l2,2.23c1.11,1.18,2.73,1.52,5.45,1.52H526.5c2.73,0,5.62.59,5.62,4.08s-3.24,4.1-5.62,4.1Z"/><path class="cls-1" d="M28.54,493.54a3.91,3.91,0,0,1-4.25-4.24c0-3.07,2-4.23,4.25-4.23H45.3V501.8c0,8.26-5.54,13.35-13.64,13.35H17c-3.91,0-6.8-.65-9.77-3.38-3.4-3.07-4-6.21-4-10.48V480c0-5.46,1.21-8.29,4.44-12.41l10-12.88c3.41-4.33,6.41-5.8,11.9-5.8H41a4.27,4.27,0,1,1,0,8.54H30.85c-4.72,0-4.36-.09-7.17,3.47l-9.27,11.85c-2.64,3.3-2.64,6.88-2.64,11.05v16.67c0,4.7,1,6.14,5.87,6.14H31.16c3.08,0,5.61-.69,5.61-4.44v-8.69Z"/><path class="cls-1" d="M99.2,494.66c-2.21,0-5.45.61-5.45,3.58v5.44c0,2.74,3.32,3.32,5.3,3.32h9l9-4.68v-1.78c0-4.52-1.26-5.88-5.79-5.88Zm.08-17.2c-2.37,0-5.59-.49-5.59-4.06s2.87-4.1,5.59-4.1h11.24c4.26,0,7.32.43,10.55,3.67s3.58,5.62,3.66,9.69l.85,27.76c.08,2.38-1.11,4.73-3.83,4.73a4.14,4.14,0,0,1-4.16-4.07L112,514c-2.31,1.16-2.38,1.16-5,1.16H99.11c-3.67,0-6.29-.4-9.26-2.88-3.42-2.8-4.25-5.77-4.25-10v-3.56c0-3.93.92-6.4,4-9.11,2.82-2.47,6-3.05,9.53-3.05h17.53v-1.9c0-6.13-1.35-7.16-7.22-7.16Z"/><path class="cls-1" d="M183.33,499.79c0,4.58-.18,7.21,5.43,7.21h4.17c3.32,0,4.86-.24,5.71-3.58a4.18,4.18,0,0,1,4.09-3.32,4.12,4.12,0,0,1,4.17,4.1,12.23,12.23,0,0,1-2.82,6.8c-3,3.58-6.91,4.15-11.22,4.15h-4.18c-4.08,0-7.67-.94-10.56-4.07-3.15-3.49-3-7-3-11.39V477.46h-2.66c-2.37,0-5.59-.49-5.59-4.06s2.89-4.1,5.59-4.1h2.66V461c0-2.8.6-5.6,4.09-5.6s4.09,2.8,4.09,5.6v8.34H197c2.73,0,5.61.59,5.61,4.1s-3.24,4.06-5.61,4.06H183.33Z"/><path class="cls-1" d="M256.38,490H280v-4.9c0-1.56.08-2.84-1-3.86l-3.14-2.72c-1-.93-2.66-1-3.93-1h-6.88a6.52,6.52,0,0,0-4.17.94l-2.82,2c-1,.76-1.69,1.37-1.69,3.75Zm6.8,25.18c-3.4,0-4.77,0-7.3-2.19l-3.5-3.06c-3.26-2.9-4.18-4.77-4.18-9.19V485c0-4.35.61-6.93,4-9.77l2.91-2.51c3.82-3.29,5.68-3.39,9-3.39h7.51c4,0,5.85.43,9,3l3.34,2.66c3.73,2.95,4.24,6.12,4.24,10.62v6.57c0,4.65-.75,6-5.61,6h-26.2v2.72a4,4,0,0,0,1.18,2.4l2.05,2.19c1.08,1.21,2.72,1.54,5.45,1.54h17.52c2.71,0,5.61.59,5.61,4.08s-3.23,4.07-5.61,4.07Z"/><path class="cls-1" d="M353.6,496.27l4.42,7.57,2.56-7.57.83-21.07c.1-2.83.61-5.9,4.1-5.9s4.08,3.07,4,5.9l-.85,22.68-4,12.1c-.85,2.46-1.28,5.17-4.17,5.17h-3.15c-1.42,0-2.62-1.51-3.39-2.63l-4.44-6.62-4.42,6.62c-.74,1.12-1.94,2.63-3.4,2.63h-3.14c-2.9,0-3.31-2.71-4.18-5.17l-4-12.1-.84-22.68c-.09-2.83.41-5.9,4-5.9s4,3.07,4.06,5.9l.87,21.07,2.55,7.57,4.41-7.57v-7.48c0-2.82.63-5.69,4.09-5.69s4.1,2.87,4.1,5.69Z"/><path class="cls-1" d="M424.46,494.66c-2.22,0-5.45.61-5.45,3.58v5.44c0,2.74,3.3,3.32,5.25,3.32h9l9-4.68v-1.78c0-4.52-1.28-5.88-5.78-5.88Zm.07-17.2c-2.39,0-5.63-.49-5.63-4.06s2.88-4.1,5.63-4.1h11.22c4.25,0,7.33.43,10.56,3.67s3.58,5.62,3.65,9.69l.85,27.76c.1,2.38-1.08,4.73-3.81,4.73a4.18,4.18,0,0,1-4.2-4.07L437.2,514c-2.3,1.16-2.37,1.16-5,1.16h-7.81c-3.66,0-6.3-.4-9.29-2.88-3.39-2.8-4.25-5.77-4.25-10v-3.56c0-3.93.93-6.4,4-9.11,2.78-2.47,5.93-3.05,9.52-3.05h17.53v-1.9c0-6.13-1.37-7.16-7.22-7.16Z"/><path class="cls-1" d="M524,479.6v-4.67c0-2.81.59-5.63,4.07-5.63s4.1,2.82,4.1,5.63v3.32a10.82,10.82,0,0,1-1,5.19l-20.6,44.85c-1.8,3.81-2.74,4.23-6.48,4.23h-6.29c-2.38,0-5.6-.5-5.6-4.07s2.88-4.09,5.6-4.09h5.62l6-12.51H509c-3.39,0-3.57-1.51-4.85-4.31L494.06,485.3c-1.07-2.47-1.91-4.34-1.91-6.72v-3.65c0-2.81.58-5.63,4.07-5.63s4.08,2.82,4.08,5.63v4.67l11,24.08h1.77Z"/><path class="cls-2" d="M506.1,89.59l8.66-2,3.93,51.1ZM412.2,73.87l8.65-2.76-8.65,37.35Zm73.88-50.3L484.5,33,458.18,20Zm-33.8,66.79.4,38.92s10.6.76,17.68-3.15l-6.27,17.68-24.39,1.57-24.35-28.69,11-46.75,34.58-12.18,22,5.88,9.81-43.23-40.06-9L400.39,27.1,367,74.25l-3.13,63.27,30.65,47.93,50.3,5.1L492,182.32,524.18,147l-4.7-64.85Z"/><polygon class="cls-2" points="373.7 23.57 367.8 51.09 382.71 18.46 373.7 23.57"/><polygon class="cls-2" points="395.32 21.61 437.73 10.59 389.41 14.53 368.18 61.68 395.32 21.61"/><polygon class="cls-2" points="362.69 182.72 370.54 182.72 362.69 159.91 362.69 182.72"/><polygon class="cls-2" points="377.22 183.89 385.86 183.89 364.65 149.69 377.22 183.89"/><polygon class="cls-2" points="490.39 7.07 468.78 10.22 492.36 14.14 490.39 7.07"/><polygon class="cls-2" points="497.87 62.47 499.81 28.68 490.78 62.86 497.87 62.47"/><polygon class="cls-2" points="526.14 85.26 529.69 134.78 532.84 89.97 526.14 85.26"/><polygon class="cls-2" points="515.54 194.11 522.22 167.78 506.88 194.11 515.54 194.11"/><polygon class="cls-2" points="496.29 187.42 454.25 194.89 498.65 194.89 521.82 158.73 496.29 187.42"/><polygon class="cls-2" points="199.61 71.11 200.01 24.75 192.54 30.63 199.61 71.11"/><polygon class="cls-2" points="193.31 179.97 198.83 184.29 198.83 99.81 193.31 179.97"/><polygon class="cls-2" points="215.33 9.82 207.86 17.29 284.86 12.96 215.33 9.82"/><polygon class="cls-2" points="346.97 65.21 350.87 33.77 317.1 20.82 343.82 39.29 346.97 65.21"/><polygon class="cls-2" points="346.97 18.46 327.31 18.46 350.87 27.1 346.97 18.46"/><polygon class="cls-2" points="267.58 188.61 276.25 183.5 267.58 152.06 267.58 188.61"/><polygon class="cls-2" points="212.18 200.78 250.69 196.46 209.04 193.71 212.18 200.78"/><polygon class="cls-2" points="351.67 170.13 332.42 118.27 344.23 97.84 324.97 117.47 351.67 170.13"/><polygon class="cls-2" points="344.99 108.84 338.33 118.66 346.19 133.59 344.99 108.84"/><polygon class="cls-2" points="341.85 201.57 347.76 194.51 307.28 200 341.85 201.57"/><path class="cls-2" d="M324.19,186.25l-10.64.39L288,147ZM299,190.18l-28.73-60.52,37.75,57.76Zm-37-123.39,15.7-5.9L290,73.49v16.1L278.6,102.94l-16.51.4Zm-46-38.9,82.15-3.54L294.7,31Zm-3.53,152.85V111.2l8.27,69.54ZM334,52.65,338.71,86l-8.25,6.29ZM344.6,88l-6.66-45.21L303,17.29,206.3,22l-1.58,164.25,57.37,4.7v-66l33.42,69.95,58.15-7.07L317.9,115.91Z"/><path class="cls-2" d="M158,27.1l9,1.59-1.57,51.86Zm-38.5,157.19-33.78-57,39.27,49.9,30.27,2.35ZM24,31.42l38.1-8.24L67.57,31Zm10.21,150.5-3.13-38.1,13.35,38.1ZM20,181.13,17.69,75,29.47,181.13ZM173.7,22.79l-58.6-7.47v75L67.19,17.29l-55,8.63.77,161.5H71.11l-2.36-73.09L115.53,191l50.29-5.87Z"/><polygon class="cls-2" points="0 179.18 8.26 185.46 5.1 54.22 0 179.18"/><polygon class="cls-2" points="25.93 201.57 65.21 196.08 18.07 192.54 25.93 201.57"/><polygon class="cls-2" points="77.8 186.64 86.06 179.97 76.62 142.24 77.8 186.64"/><polygon class="cls-2" points="96.26 189.38 105.69 191.34 88.02 160.72 96.26 189.38"/><polygon class="cls-2" points="130.07 196.46 180.35 196.46 180.35 79.76 172.11 190.18 130.07 196.46"/><polygon class="cls-2" points="178.78 55.79 185.86 34.57 180.74 28.29 178.78 55.79"/><polygon class="cls-2" points="169.35 9.43 127.7 11.4 172.11 17.29 169.35 9.43"/><polygon class="cls-2" points="103.73 64.44 73.86 0 22.38 16.11 70.74 9.04 103.73 64.44"/><polygon class="cls-2" points="92.34 4.3 82.52 1.17 100.21 45.17 92.34 4.3"/><polygon class="cls-2" points="268.37 95.49 274.67 69.54 268.37 71.5 268.37 95.49"/></g></g></svg>